<svg xmlns="http://www.w3.org/2000/svg" id="SvgjsSvg1190" width="772.87" height="566.03" xmlns:xlink="http://www.w3.org/1999/xlink" version="1.1" xmlns:svgjs="http://svgjs.com/svgjs"><defs id="SvgjsDefs1191"><marker id="SvgjsMarker1235" stroke-dasharray="0px, 0px" viewBox="0 0 14 10" refX="10" refY="5" markerUnits="userSpaceOnUse" markerWidth="14" markerHeight="10" orient="auto"><path id="SvgjsPath1236" fill="#323232" stroke="#323232" stroke-width="1" d="M 0 0 L 14 5 L 0 10 L 0 0" /></marker><marker id="SvgjsMarker1239" stroke-dasharray="0px, 0px" viewBox="0 0 14 10" refX="10" refY="5" markerUnits="userSpaceOnUse" markerWidth="14" markerHeight="10" orient="auto"><path id="SvgjsPath1240" fill="#323232" stroke="#323232" stroke-width="1" d="M 0 0 L 14 5 L 0 10 L 0 0" /></marker><marker id="SvgjsMarker1249" stroke-dasharray="0px, 0px" viewBox="0 0 14 10" refX="10" refY="5" markerUnits="userSpaceOnUse" markerWidth="14" markerHeight="10" orient="auto"><path id="SvgjsPath1250" fill="#323232" stroke="#323232" stroke-width="1" d="M 0 0 L 14 5 L 0 10 L 0 0" /></marker><marker id="SvgjsMarker1291" stroke-dasharray="0px, 0px" viewBox="0 0 14 10" refX="10" refY="5" markerUnits="userSpaceOnUse" markerWidth="14" markerHeight="10" orient="auto"><path id="SvgjsPath1292" fill="#323232" stroke="#323232" stroke-width="1" d="M 0 0 L 14 5 L 0 10 L 0 0" /></marker><marker id="SvgjsMarker1295" stroke-dasharray="0px, 0px" viewBox="0 0 14 10" refX="10" refY="5" markerUnits="userSpaceOnUse" markerWidth="14" markerHeight="10" orient="auto"><path id="SvgjsPath1296" fill="#323232" stroke="#323232" stroke-width="1" d="M 0 0 L 14 5 L 0 10 L 0 0" /></marker><marker id="SvgjsMarker1343" stroke-dasharray="0px, 0px" viewBox="0 0 14 10" refX="10" refY="5" markerUnits="userSpaceOnUse" markerWidth="14" markerHeight="10" orient="auto"><path id="SvgjsPath1344" fill="#323232" stroke="#323232" stroke-width="1" d="M 0 0 L 14 5 L 0 10 L 0 0" /></marker><marker id="SvgjsMarker1347" stroke-dasharray="0px, 0px" viewBox="0 0 14 10" refX="10" refY="5" markerUnits="userSpaceOnUse" markerWidth="14" markerHeight="10" orient="auto"><path id="SvgjsPath1348" fill="#323232" stroke="#323232" stroke-width="1" d="M 0 0 L 14 5 L 0 10 L 0 0" /></marker><marker id="SvgjsMarker1351" stroke-dasharray="0px, 0px" viewBox="0 0 14 10" refX="10" refY="5" markerUnits="userSpaceOnUse" markerWidth="14" markerHeight="10" orient="auto"><path id="SvgjsPath1352" fill="#323232" stroke="#323232" stroke-width="1" d="M 0 0 L 14 5 L 0 10 L 0 0" /></marker><marker id="SvgjsMarker1355" stroke-dasharray="0px, 0px" viewBox="0 0 14 10" refX="10" refY="5" markerUnits="userSpaceOnUse" markerWidth="14" markerHeight="10" orient="auto"><path id="SvgjsPath1356" fill="#323232" stroke="#323232" stroke-width="1" d="M 0 0 L 14 5 L 0 10 L 0 0" /></marker><marker id="SvgjsMarker1365" stroke-dasharray="0px, 0px" viewBox="0 0 14 10" refX="10" refY="5" markerUnits="userSpaceOnUse" markerWidth="14" markerHeight="10" orient="auto"><path id="SvgjsPath1366" fill="#323232" stroke="#323232" stroke-width="1" d="M 0 0 L 14 5 L 0 10 L 0 0" /></marker><marker id="SvgjsMarker1369" stroke-dasharray="0px, 0px" viewBox="0 0 14 10" refX="10" refY="5" markerUnits="userSpaceOnUse" markerWidth="14" markerHeight="10" orient="auto"><path id="SvgjsPath1370" fill="#323232" stroke="#323232" stroke-width="1" d="M 0 0 L 14 5 L 0 10 L 0 0" /></marker></defs><g id="SvgjsG1192" transform="translate(196.5 25)"><path id="SvgjsPath1193" fill="#fff9c4" fill-opacity="1" stroke="rgba(255, 249, 196, 1)" stroke-width="2" d="M 0 0 L 412 0 L 412 196 L 0 196 Z" /><g id="SvgjsG1194"><text id="SvgjsText1195" font-family="微软雅黑" font-size="13px" font-style="" font-weight="400" opacity="1" fill="#323232" text-anchor="middle" transform="rotate(0)" y="87.375" width="392px" align="middle" lineHeight="125%" anchor="middle" family="微软雅黑" size="13px" weight="400"><tspan id="SvgjsTspan1196" x="206" dy="16"><tspan id="SvgjsTspan1197" style="text-decoration:;"> </tspan></tspan></text></g></g><g id="SvgjsG1198" transform="translate(366.006 62.8076)"><path id="SvgjsPath1199" fill="#ffe0b2" fill-opacity="1" stroke="rgba(0, 0, 0, 1)" stroke-width="1" d="M 0 0 L 216.494 0 L 216.494 135.692 L 0 135.692 Z" /><g id="SvgjsG1200"><text id="SvgjsText1201" font-family="微软雅黑" font-size="13px" font-style="" font-weight="400" opacity="1" fill="#323232" text-anchor="middle" transform="rotate(0)" y="57.2212" width="197px" align="middle" lineHeight="125%" anchor="middle" family="微软雅黑" size="13px" weight="400"><tspan id="SvgjsTspan1202" x="108.5" dy="16"><tspan id="SvgjsTspan1203" style="text-decoration:;"> </tspan></tspan></text></g></g><g id="SvgjsG1204" transform="translate(25 225.544)"><path id="SvgjsPath1205" fill="none" stroke="rgba(136, 136, 136, 1)" stroke-dasharray="10px, 6px" stroke-width="1" d="M 0 10.5 L 691 10.5" /><path id="SvgjsPath1206" fill="none" stroke="none" d="M 0 0 L 691 0 L 691 21 L 0 21 Z" /></g><g id="SvgjsG1207" transform="translate(352.5 59.25)"><path id="SvgjsPath1208" fill="none" stroke="none" d="M 0 0 L 120 0 L 120 40 L 0 40 Z" /><g id="SvgjsG1209"><text id="SvgjsText1210" font-family="微软雅黑" font-size="15px" font-style="" font-weight="700" opacity="1" fill="#323232" text-anchor="middle" transform="rotate(0)" y="7.625" width="120px" align="middle" lineHeight="125%" anchor="middle" family="微软雅黑" size="15px" weight="700"><tspan id="SvgjsTspan1211" x="60" dy="18"><tspan id="SvgjsTspan1212" style="text-decoration:;">CloudCore</tspan></tspan></text></g></g><g id="SvgjsG1213" transform="translate(398.5 106.5)"><path id="SvgjsPath1214" fill="#ffb74d" fill-opacity="1" stroke="rgba(50, 50, 50, 1)" stroke-width="1" d="M 0 4 Q 0 0 4 0 L 154 0 Q 158 0 158 4 L 158 29 Q 158 33 154 33 L 4 33 Q 0 33 0 29 Z" /><g id="SvgjsG1215"><text id="SvgjsText1216" font-family="微软雅黑" font-size="13px" font-style="" font-weight="400" opacity="1" fill="#323232" text-anchor="middle" transform="rotate(0)" y="5.875" width="138px" align="middle" lineHeight="125%" anchor="middle" family="微软雅黑" size="13px" weight="400"><tspan id="SvgjsTspan1217" x="79" dy="16"><tspan id="SvgjsTspan1218" style="text-decoration:;">Controllers</tspan></tspan></text></g></g><g id="SvgjsG1219" transform="translate(398.5 152.5)"><path id="SvgjsPath1220" fill="#ffb74d" fill-opacity="1" stroke="rgba(50, 50, 50, 1)" stroke-width="1" d="M 0 4 Q 0 0 4 0 L 154 0 Q 158 0 158 4 L 158 29 Q 158 33 154 33 L 4 33 Q 0 33 0 29 Z" /><g id="SvgjsG1221"><text id="SvgjsText1222" font-family="微软雅黑" font-size="13px" font-style="" font-weight="400" opacity="1" fill="#323232" text-anchor="middle" transform="rotate(0)" y="5.875" width="138px" align="middle" lineHeight="125%" anchor="middle" family="微软雅黑" size="13px" weight="400"><tspan id="SvgjsTspan1223" x="79" dy="16"><tspan id="SvgjsTspan1224" style="text-decoration:;">Cloud Hub</tspan></tspan></text></g></g><g id="SvgjsG1225" transform="translate(218.5 88)"><path id="SvgjsPath1226" fill="#c8e6c9" fill-opacity="1" stroke="rgba(50, 50, 50, 1)" stroke-width="1" d="M 0 4 Q 0 0 4 0 L 96 0 Q 100 0 100 4 L 100 66 Q 100 70 96 70 L 4 70 Q 0 70 0 66 Z" /><g id="SvgjsG1227"><text id="SvgjsText1228" font-family="微软雅黑" font-size="13px" font-style="" font-weight="700" opacity="1" fill="#323232" text-anchor="middle" transform="rotate(0)" y="16.375" width="80px" align="middle" lineHeight="125%" anchor="middle" family="微软雅黑" size="13px" weight="700"><tspan id="SvgjsTspan1229" x="50" dy="16"><tspan id="SvgjsTspan1230" style="text-decoration:;">K8S API </tspan></tspan><tspan id="SvgjsTspan1231" x="50" dy="16"><tspan id="SvgjsTspan1232" style="text-decoration:;">Server</tspan></tspan></text></g></g><g id="SvgjsG1233"><path id="SvgjsPath1234" fill="none" marker-end="url(&quot;#SvgjsMarker1235&quot;)" stroke="#323232" stroke-width="2" d="M 398 123 L 358.5 123 L 358.5 123 L 321.6 123" /></g><g id="SvgjsG1237"><path id="SvgjsPath1238" fill="none" marker-end="url(&quot;#SvgjsMarker1239&quot;)" stroke="#323232" stroke-width="2" d="M 319 123 L 358.5 123 L 358.5 123 L 395.4 123" /></g><g id="SvgjsG1241" transform="translate(114.5 99.25)"><path id="SvgjsPath1242" fill="#ffffff" fill-opacity="1" stroke="rgba(50, 50, 50, 1)" stroke-width="2" d="M 0 23.75 C 0 -7.91667 53 -7.91667 53 23.75 C 53 55.4167 0 55.4167 0 23.75 Z" /><g id="SvgjsG1243"><text id="SvgjsText1244" font-family="微软雅黑" font-size="13px" font-style="" font-weight="700" opacity="1" fill="#323232" text-anchor="middle" transform="rotate(0)" y="13.125" width="33px" align="middle" lineHeight="125%" anchor="middle" family="微软雅黑" size="13px" weight="700"><tspan id="SvgjsTspan1245" x="26.5" dy="16"><tspan id="SvgjsTspan1246" style="text-decoration:;">User</tspan></tspan></text></g></g><g id="SvgjsG1247"><path id="SvgjsPath1248" fill="none" marker-end="url(&quot;#SvgjsMarker1249&quot;)" stroke="#323232" stroke-width="2" d="M 168.5 123 L 193 123 L 193 123 L 215.4 123" /></g><g id="SvgjsG1251" transform="translate(191.5 256.088)"><path id="SvgjsPath1252" fill="#fff9c4" fill-opacity="1" stroke="rgba(255, 249, 196, 1)" stroke-width="1" d="M 0 0 L 422 0 L 422 229.412 L 0 229.412 Z" /><g id="SvgjsG1253"><text id="SvgjsText1254" font-family="微软雅黑" font-size="13px" font-style="" font-weight="400" opacity="1" fill="#323232" text-anchor="middle" transform="rotate(0)" y="104.0812" width="402px" align="middle" lineHeight="125%" anchor="middle" family="微软雅黑" size="13px" weight="400"><tspan id="SvgjsTspan1255" x="211" dy="16"><tspan id="SvgjsTspan1256" style="text-decoration:;"> </tspan></tspan></text></g></g><g id="SvgjsG1257" transform="translate(198.5 32.8076)"><path id="SvgjsPath1258" fill="none" stroke="none" d="M 0 0 L 120 0 L 120 40 L 0 40 Z" /><g id="SvgjsG1259"><text id="SvgjsText1260" font-family="微软雅黑" font-size="15px" font-style="" font-weight="700" opacity="1" fill="#323232" text-anchor="middle" transform="rotate(0)" y="-1.375" width="120px" align="middle" lineHeight="125%" anchor="middle" family="微软雅黑" size="15px" weight="700"><tspan id="SvgjsTspan1261" x="60" dy="18"><tspan id="SvgjsTspan1262" style="text-decoration:;">Cloud Server </tspan></tspan><tspan id="SvgjsTspan1263" x="60" dy="18"><tspan id="SvgjsTspan1264" style="text-decoration:;">Cluster</tspan></tspan></text></g></g><g id="SvgjsG1265" transform="translate(204.5 255.088)"><path id="SvgjsPath1266" fill="none" stroke="none" d="M 0 0 L 120 0 L 120 40 L 0 40 Z" /><g id="SvgjsG1267"><text id="SvgjsText1268" font-family="微软雅黑" font-size="15px" font-style="" font-weight="700" opacity="1" fill="#323232" text-anchor="middle" transform="rotate(0)" y="7.625" width="120px" align="middle" lineHeight="125%" anchor="middle" family="微软雅黑" size="15px" weight="700"><tspan id="SvgjsTspan1269" x="60" dy="18"><tspan id="SvgjsTspan1270" style="text-decoration:;">Openharmony</tspan></tspan></text></g></g><g id="SvgjsG1271" transform="translate(304.006 297.088)"><path id="SvgjsPath1272" fill="#ffe0b2" fill-opacity="1" stroke="rgba(50, 50, 50, 1)" stroke-width="1" d="M 0 0 L 286.494 0 L 286.494 169.412 L 0 169.412 Z" /><g id="SvgjsG1273"><text id="SvgjsText1274" font-family="微软雅黑" font-size="13px" font-style="" font-weight="400" opacity="1" fill="#323232" text-anchor="middle" transform="rotate(0)" y="74.0812" width="267px" align="middle" lineHeight="125%" anchor="middle" family="微软雅黑" size="13px" weight="400"><tspan id="SvgjsTspan1275" x="143.5" dy="16"><tspan id="SvgjsTspan1276" style="text-decoration:;"> </tspan></tspan></text></g></g><g id="SvgjsG1277" transform="translate(288.5 293.088)"><path id="SvgjsPath1278" fill="none" stroke="none" d="M 0 0 L 120 0 L 120 40 L 0 40 Z" /><g id="SvgjsG1279"><text id="SvgjsText1280" font-family="微软雅黑" font-size="15px" font-style="" font-weight="700" opacity="1" fill="#323232" text-anchor="middle" transform="rotate(0)" y="7.625" width="120px" align="middle" lineHeight="125%" anchor="middle" family="微软雅黑" size="15px" weight="700"><tspan id="SvgjsTspan1281" x="60" dy="18"><tspan id="SvgjsTspan1282" style="text-decoration:;">EdgeCore</tspan></tspan></text></g></g><g id="SvgjsG1283" transform="translate(398.5 315.5)"><path id="SvgjsPath1284" fill="#ffb74d" fill-opacity="1" stroke="rgba(50, 50, 50, 1)" stroke-width="1" d="M 0 4 Q 0 0 4 0 L 154 0 Q 158 0 158 4 L 158 29 Q 158 33 154 33 L 4 33 Q 0 33 0 29 Z" /><g id="SvgjsG1285"><text id="SvgjsText1286" font-family="微软雅黑" font-size="13px" font-style="" font-weight="400" opacity="1" fill="#323232" text-anchor="middle" transform="rotate(0)" y="5.875" width="138px" align="middle" lineHeight="125%" anchor="middle" family="微软雅黑" size="13px" weight="400"><tspan id="SvgjsTspan1287" x="79" dy="16"><tspan id="SvgjsTspan1288" style="text-decoration:;">EdgeHub</tspan></tspan></text></g></g><g id="SvgjsG1289"><path id="SvgjsPath1290" fill="none" marker-end="url(&quot;#SvgjsMarker1291&quot;)" stroke="#323232" stroke-width="2" d="M 477.5 186 L 477.5 250.5 L 477.5 250.5 L 477.5 312.4" /></g><g id="SvgjsG1293"><path id="SvgjsPath1294" fill="none" marker-end="url(&quot;#SvgjsMarker1295&quot;)" stroke="#323232" stroke-width="2" d="M 477.5 315 L 477.5 250.5 L 477.5 250.5 L 477.5 188.6" /></g><g id="SvgjsG1297" transform="translate(460.753 356.5)"><path id="SvgjsPath1298" fill="#ffb74d" fill-opacity="1" stroke="rgba(50, 50, 50, 1)" stroke-width="1" d="M 0 4 Q 0 0 4 0 L 91.7471 0 Q 95.7471 0 95.7471 4 L 95.7471 29 Q 95.7471 33 91.7471 33 L 4 33 Q 0 33 0 29 Z" /><g id="SvgjsG1299"><text id="SvgjsText1300" font-family="微软雅黑" font-size="13px" font-style="" font-weight="400" opacity="1" fill="#323232" text-anchor="middle" transform="rotate(0)" y="5.875" width="76px" align="middle" lineHeight="125%" anchor="middle" family="微软雅黑" size="13px" weight="400"><tspan id="SvgjsTspan1301" x="48" dy="16"><tspan id="SvgjsTspan1302" style="text-decoration:;">DeviceTwin</tspan></tspan></text></g></g><g id="SvgjsG1303" transform="translate(462.5 395.5)"><path id="SvgjsPath1304" fill="#ffb74d" fill-opacity="1" stroke="rgba(50, 50, 50, 1)" stroke-width="1" d="M 0 4 Q 0 0 4 0 L 88.2529 0 Q 92.2529 0 92.2529 4 L 92.2529 22 Q 92.2529 26 88.2529 26 L 4 26 Q 0 26 0 22 Z" /><g id="SvgjsG1305"><text id="SvgjsText1306" font-family="微软雅黑" font-size="13px" font-style="" font-weight="400" opacity="1" fill="#323232" text-anchor="middle" transform="rotate(0)" y="2.375" width="73px" align="middle" lineHeight="125%" anchor="middle" family="微软雅黑" size="13px" weight="400"><tspan id="SvgjsTspan1307" x="46.5" dy="16"><tspan id="SvgjsTspan1308" style="text-decoration:;">EventBus</tspan></tspan></text></g></g><g id="SvgjsG1309" transform="translate(352.5 356.5)"><path id="SvgjsPath1310" fill="#ffb74d" fill-opacity="1" stroke="rgba(50, 50, 50, 1)" stroke-width="1" d="M 0 4 Q 0 0 4 0 L 91.7471 0 Q 95.7471 0 95.7471 4 L 95.7471 29 Q 95.7471 33 91.7471 33 L 4 33 Q 0 33 0 29 Z" /><g id="SvgjsG1311"><text id="SvgjsText1312" font-family="微软雅黑" font-size="13px" font-style="" font-weight="400" opacity="1" fill="#323232" text-anchor="middle" transform="rotate(0)" y="-2.125" width="76px" align="middle" lineHeight="125%" anchor="middle" family="微软雅黑" size="13px" weight="400"><tspan id="SvgjsTspan1313" x="48" dy="16"><tspan id="SvgjsTspan1314" style="text-decoration:;">MetaManag</tspan></tspan><tspan id="SvgjsTspan1315" x="48" dy="16"><tspan id="SvgjsTspan1316" style="text-decoration:;">er</tspan></tspan></text></g></g><g id="SvgjsG1317" transform="translate(353.374 395.5)"><path id="SvgjsPath1318" fill="#ffb74d" fill-opacity="1" stroke="rgba(50, 50, 50, 1)" stroke-width="1" d="M 0 4 Q 0 0 4 0 L 90 0 Q 94 0 94 4 L 94 54 Q 94 58 90 58 L 4 58 Q 0 58 0 54 Z" /><g id="SvgjsG1319"><text id="SvgjsText1320" font-family="微软雅黑" font-size="13px" font-style="" font-weight="400" opacity="1" fill="#323232" text-anchor="middle" transform="rotate(0)" y="18.375" width="74px" align="middle" lineHeight="125%" anchor="middle" family="微软雅黑" size="13px" weight="400"><tspan id="SvgjsTspan1321" x="47" dy="16"><tspan id="SvgjsTspan1322" style="text-decoration:;">Edged</tspan></tspan></text></g></g><g id="SvgjsG1323" transform="translate(462.5 427.5)"><path id="SvgjsPath1324" fill="#ffb74d" fill-opacity="1" stroke="rgba(50, 50, 50, 1)" stroke-width="1" d="M 0 4 Q 0 0 4 0 L 88.2529 0 Q 92.2529 0 92.2529 4 L 92.2529 22 Q 92.2529 26 88.2529 26 L 4 26 Q 0 26 0 22 Z" /><g id="SvgjsG1325"><text id="SvgjsText1326" font-family="微软雅黑" font-size="13px" font-style="" font-weight="400" opacity="1" fill="#323232" text-anchor="middle" transform="rotate(0)" y="2.375" width="73px" align="middle" lineHeight="125%" anchor="middle" family="微软雅黑" size="13px" weight="400"><tspan id="SvgjsTspan1327" x="46.5" dy="16"><tspan id="SvgjsTspan1328" style="text-decoration:;"> ServiceBus</tspan></tspan></text></g></g><g id="SvgjsG1329" transform="translate(637.875 396.125)"><path id="SvgjsPath1330" fill="#ffffff" fill-opacity="1" stroke="rgba(50, 50, 50, 1)" stroke-width="2" d="M 0 4 Q 0 0 4 0 L 105.625 0 Q 109.625 0 109.625 4 L 109.625 20.75 Q 109.625 24.75 105.625 24.75 L 4 24.75 Q 0 24.75 0 20.75 Z" /><g id="SvgjsG1331"><text id="SvgjsText1332" font-family="微软雅黑" font-size="13px" font-style="" font-weight="400" opacity="1" fill="#323232" text-anchor="middle" transform="rotate(0)" y="1.75" width="90px" align="middle" lineHeight="125%" anchor="middle" family="微软雅黑" size="13px" weight="400"><tspan id="SvgjsTspan1333" x="55" dy="16"><tspan id="SvgjsTspan1334" style="text-decoration:;">MQTT Broker</tspan></tspan></text></g></g><g id="SvgjsG1335" transform="translate(639.875 428)"><path id="SvgjsPath1336" fill="#ffffff" fill-opacity="1" stroke="rgba(50, 50, 50, 1)" stroke-width="2" d="M 0 4 Q 0 0 4 0 L 101.625 0 Q 105.625 0 105.625 4 L 105.625 21 Q 105.625 25 101.625 25 L 4 25 Q 0 25 0 21 Z" /><g id="SvgjsG1337"><text id="SvgjsText1338" font-family="微软雅黑" font-size="13px" font-style="" font-weight="400" opacity="1" fill="#323232" text-anchor="middle" transform="rotate(0)" y="1.875" width="86px" align="middle" lineHeight="125%" anchor="middle" family="微软雅黑" size="13px" weight="400"><tspan id="SvgjsTspan1339" x="53" dy="16"><tspan id="SvgjsTspan1340" style="text-decoration:;">APP</tspan></tspan></text></g></g><g id="SvgjsG1341"><path id="SvgjsPath1342" fill="none" marker-end="url(&quot;#SvgjsMarker1343&quot;)" stroke="#323232" stroke-width="2" d="M 638.875 440.5 L 597.314 440.5 L 597.314 440.5 L 557.853 440.5" /></g><g id="SvgjsG1345"><path id="SvgjsPath1346" fill="none" marker-end="url(&quot;#SvgjsMarker1347&quot;)" stroke="#323232" stroke-width="2" d="M 555.253 440.5 L 597.314 440.5 L 597.314 440.5 L 636.275 440.5" /></g><g id="SvgjsG1349"><path id="SvgjsPath1350" fill="none" marker-end="url(&quot;#SvgjsMarker1351&quot;)" stroke="#323232" stroke-width="2" d="M 636.875 408.5 L 596.314 408.5 L 596.314 408.5 L 557.853 408.5" /></g><g id="SvgjsG1353"><path id="SvgjsPath1354" fill="none" marker-end="url(&quot;#SvgjsMarker1355&quot;)" stroke="#323232" stroke-width="2" d="M 555.253 408.5 L 596.314 408.5 L 596.314 408.5 L 634.275 408.5" /></g><g id="SvgjsG1357" transform="translate(360.187 508.044)"><path id="SvgjsPath1358" fill="#ffffff" fill-opacity="1" stroke="rgba(50, 50, 50, 1)" stroke-width="2" d="M 0 4 Q 0 0 4 0 L 76.3736 0 Q 80.3736 0 80.3736 4 L 80.3736 29.4562 Q 80.3736 33.4562 76.3736 33.4562 L 4 33.4562 Q 0 33.4562 0 29.4562 Z" /><g id="SvgjsG1359"><text id="SvgjsText1360" font-family="微软雅黑" font-size="13px" font-style="" font-weight="400" opacity="1" fill="#323232" text-anchor="middle" transform="rotate(0)" y="6.1031" width="61px" align="middle" lineHeight="125%" anchor="middle" family="微软雅黑" size="13px" weight="400"><tspan id="SvgjsTspan1361" x="40.5" dy="16"><tspan id="SvgjsTspan1362" style="text-decoration:;">Docker</tspan></tspan></text></g></g><g id="SvgjsG1363"><path id="SvgjsPath1364" fill="none" marker-end="url(&quot;#SvgjsMarker1365&quot;)" stroke="#323232" stroke-width="2" d="M 400.374 507.044 L 400.374 480.772 L 400.374 480.772 L 400.374 456.6" /></g><g id="SvgjsG1367"><path id="SvgjsPath1368" fill="none" marker-end="url(&quot;#SvgjsMarker1369&quot;)" stroke="#323232" stroke-width="2" d="M 400.374 454 L 400.374 480.772 L 400.374 480.772 L 400.374 504.444" /></g></svg>